<svg xmlns="http://www.w3.org/2000/svg" xmlns:xlink="http://www.w3.org/1999/xlink" viewBox="0 0 376.29 244.87"><defs><style>.cls-1{isolation:isolate;}.cls-2,.cls-28{fill:#92b4d1;}.cls-15,.cls-2,.cls-33,.cls-35{opacity:0.2;}.cls-3{fill:#a8cff0;}.cls-4{fill:#084c94;}.cls-5{fill:#2672ab;}.cls-6{fill:#3f92d1;}.cls-10,.cls-25,.cls-7{fill:#d1ebff;}.cls-13,.cls-15,.cls-16,.cls-26,.cls-33,.cls-34,.cls-35,.cls-7{mix-blend-mode:multiply;}.cls-8{fill:#f0f8ff;}.cls-22,.cls-9{fill:#fff;}.cls-11,.cls-30{fill:#72b5e8;}.cls-12,.cls-13{fill:#0fbab8;}.cls-13{opacity:0.8;}.cls-14{fill:#ffe9b8;}.cls-15{fill:url(#radial-gradient);}.cls-16{opacity:0.3;fill:url(#radial-gradient-2);}.cls-17{mix-blend-mode:screen;fill:url(#radial-gradient-3);}.cls-18{fill:#fc0;}.cls-19{fill:#ffde17;}.cls-20{fill:#eb4680;}.cls-21{fill:#f76195;}.cls-22,.cls-25,.cls-30{opacity:0.5;}.cls-23{fill:#001a46;}.cls-24{fill:#03336e;}.cls-26{fill:#9d9eb3;}.cls-27{fill:#3ecfcd;}.cls-29{fill:#ffd70f;}.cls-31{fill:#d62d69;}.cls-32{fill:url(#linear-gradient);}.cls-33{fill:url(#radial-gradient-4);}.cls-34{fill:url(#radial-gradient-5);}</style><radialGradient id="radial-gradient" cx="2791.7" cy="-1437" r="23.57" gradientTransform="matrix(0.78, 0.62, -0.24, 0.3, -2126.62, -1008.32)" gradientUnits="userSpaceOnUse"><stop offset="0" stop-color="#819ec7"/><stop offset="1" stop-color="#fff"/></radialGradient><radialGradient id="radial-gradient-2" cx="2791.22" cy="-1436.51" r="16.39" xlink:href="#radial-gradient"/><radialGradient id="radial-gradient-3" cx="4275.4" cy="-6643.3" r="13.54" gradientTransform="matrix(1.06, -0.46, 0.06, 0.14, -3685.67, 3138.85)" gradientUnits="userSpaceOnUse"><stop offset="0" stop-color="#fff"/><stop offset="0.13" stop-color="#ff63ce"/><stop offset="1"/></radialGradient><linearGradient id="linear-gradient" x1="2403.83" y1="-2192.56" x2="2428.42" y2="-2190.89" gradientTransform="matrix(0, 1, 1, 0, 2587.01, -2201.56)" gradientUnits="userSpaceOnUse"><stop offset="0" stop-color="#d6dae6"/><stop offset="0.01" stop-color="#d4d8e6"/><stop offset="0.28" stop-color="#b4b8e3"/><stop offset="0.4" stop-color="#9a9fc8"/><stop offset="0.53" stop-color="#838ab0"/><stop offset="0.65" stop-color="#757da1"/><stop offset="0.76" stop-color="#70789c"/><stop offset="0.85" stop-color="#777ea2"/><stop offset="0.99" stop-color="#898eb3"/><stop offset="1" stop-color="#8b90b5"/></linearGradient><radialGradient id="radial-gradient-4" cx="5679" cy="-8213.34" r="23.72" gradientTransform="matrix(-0.74, 0.68, 0.26, 0.28, 6728.05, -1297.67)" gradientUnits="userSpaceOnUse"><stop offset="0" stop-color="#daebf2"/><stop offset="1" stop-color="#fff"/></radialGradient><radialGradient id="radial-gradient-5" cx="5679.22" cy="-8208.97" r="26.74" xlink:href="#radial-gradient-4"/></defs><g class="cls-1"><g id="Layer_1" data-name="Layer 1"><path class="cls-2" d="M373.73,333.71l52.49-30.61c3.39-2,3-5.37-1-7.63l-79.19-45.71c-3.92-2.26-9.83-2.5-13.22-.55l-52.49,30.61c-3.39,2-3,5.38.95,7.64l79.19,45.7C364.42,335.42,370.34,335.67,373.73,333.71Z" transform="translate(-191.02 -97.02)"/><path class="cls-3" d="M291.5,273.54l5.66,2.11,34.37-21-5.65-2.11a13.65,13.65,0,0,0-6.18-.5,13.82,13.82,0,0,0-5.26,1.72l-6.45,4-1.55-.57a13.91,13.91,0,0,0-10.82,1.2c-2.81,1.77-2.44,4.1.61,5.23l1.37.5-6.45,4c-1.38.85-2.16,1.86-2.19,2.85S289.84,272.93,291.5,273.54Zm7.15-11.9c-1.4-.51-1.47-1.58-.15-2.38a6.38,6.38,0,0,1,4.9-.53c1.4.52,1.47,1.59.15,2.39A6.37,6.37,0,0,1,298.65,261.64Z" transform="translate(-191.02 -97.02)"/><path class="cls-4" d="M373.36,332.64,425.88,302c3.37-1.94,2.95-5.34-.95-7.59l-79-45.59c-3.89-2.25-9.77-2.49-13.14-.55l-52.52,30.64c-3.37,1.94-2.95,5.34,1,7.59l79,45.59C364.11,334.34,370,334.58,373.36,332.64Z" transform="translate(-191.02 -97.02)"/><path class="cls-5" d="M373.36,331.56l52.52-30.64c3.37-1.94,2.95-5.34-.95-7.59l-79-45.59c-3.89-2.25-9.77-2.49-13.14-.55l-52.52,30.64c-3.37,1.94-2.95,5.34,1,7.59l79,45.59C364.11,333.26,370,333.5,373.36,331.56Z" transform="translate(-191.02 -97.02)"/><path class="cls-6" d="M281.22,284.83l79,45.59c3.89,2.25,9.77,2.49,13.14.55l52.52-30.63a4,4,0,0,0,2.25-3c.14,1.35-.6,2.66-2.25,3.61l-52.52,30.64c-3.37,1.94-9.25,1.7-13.14-.55l-79-45.59c-2.26-1.31-3.34-3-3.2-4.57C278.16,282.25,279.24,283.69,281.22,284.83Z" transform="translate(-191.02 -97.02)"/><polygon class="cls-7" points="177.06 230.04 231.1 193.49 146.38 152.3 92.33 188.85 177.06 230.04"/><polygon class="cls-8" points="176.04 228.92 230.08 192.37 145.35 151.17 91.31 187.73 176.04 228.92"/><polygon class="cls-7" points="176.64 231.25 233.72 198.3 151.3 150.71 94.22 183.67 176.64 231.25"/><polygon class="cls-9" points="175.74 229.92 232.24 197.3 150.65 150.2 94.14 182.82 175.74 229.92"/><path class="cls-7" d="M291.53,273.55,296.8,276l34.35-19.83-5.28-2.49a11.49,11.49,0,0,0-5.88-1.3,11.31,11.31,0,0,0-5.16,1.32l-6.44,3.73-1.45-.84a11.4,11.4,0,0,0-10.45.07c-2.81,1.68-2.61,4.38.24,6l1.28.74-6.45,3.72a4.06,4.06,0,0,0-2.29,3C289.16,271.43,290,272.66,291.53,273.55Zm7.64-12.67c-1.3-.75-1.3-2,0-2.73a5.21,5.21,0,0,1,4.74,0c1.3.75,1.3,2,0,2.73A5.24,5.24,0,0,1,299.17,260.88Z" transform="translate(-191.02 -97.02)"/><path class="cls-3" d="M291.9,272.42l5.28,3.08,34.35-19.83-5.28-3.08a11.39,11.39,0,0,0-5.88-1.3,11.06,11.06,0,0,0-5.16,1.32l-6.44,3.72-1.45-.84a11.43,11.43,0,0,0-10.45.08c-2.81,1.68-2.61,4.38.23,6l1.28.74-6.44,3.72a4.06,4.06,0,0,0-2.3,3C289.53,270.29,290.35,271.53,291.9,272.42Zm7.65-12.67c-1.31-.76-1.3-2,0-2.74a5.24,5.24,0,0,1,4.74,0c1.3.76,1.3,2,0,2.74A5.22,5.22,0,0,1,299.55,259.75Z" transform="translate(-191.02 -97.02)"/><path class="cls-10" d="M299.56,256.48a5.27,5.27,0,0,1,4.74,0,1.55,1.55,0,0,1,.94,1.63,1.86,1.86,0,0,0-.94-1.1,5.24,5.24,0,0,0-4.74,0,1.86,1.86,0,0,0-.95,1.11C298.47,257.54,298.79,256.93,299.56,256.48Z" transform="translate(-191.02 -97.02)"/><path class="cls-10" d="M297.1,261.06l1.28.74-.46.26-.82-.47c-1.6-.93-2.36-2.19-2.22-3.41A4,4,0,0,0,297.1,261.06Z" transform="translate(-191.02 -97.02)"/><path class="cls-11" d="M291.9,271.89l5.28,3.08,33.89-19.57.46.27L297.18,275.5l-5.28-3.08c-1.55-.89-2.37-2.13-2.26-3.4a0,0,0,0,0,0,0A4,4,0,0,0,291.9,271.89Z" transform="translate(-191.02 -97.02)"/><polygon class="cls-10" points="104.87 174.64 134.98 157.26 133.69 156.52 103.58 173.91 104.87 174.64"/><polygon class="cls-11" points="105.17 175.02 135.28 157.63 133.99 156.9 103.88 174.28 105.17 175.02"/><path class="cls-12" d="M318.84,269.41l1.39.8,2.8-1.61-1.39-.8Zm13.07-4.11-15.69,9.06,1.39.81,15.69-9.06Zm-24.12,12.1L319,270.91l-1.39-.81-11.24,6.49ZM342.86,259l-9.75,5.62,1.39.8,9.75-5.62Zm-7.58.93-12.44,7.18,1.39.81,12.44-7.19Zm10.16-.82,2.92-1.69-1.39-.8-2.92,1.68ZM305.2,277.29l-5,2.87,1.39.8,5-2.87Zm9.82-2.24-11.82,6.83,1.39.8,11.82-6.82Z" transform="translate(-191.02 -97.02)"/><path class="cls-11" d="M326.15,275.74l1.05.6,2.1-1.21-1.05-.6Zm12-4.33-14,8,1.05.6,14-8.05Zm-8.95,7.74,1.05.6,5.93-3.41-1.05-.6Zm11.33-3.95-10.62,6.12,1,.61,10.63-6.12Zm-25.3,8,11.06-6.37-1-.6-11.06,6.37Zm5.67,1.92,8.45-4.88-1.05-.6-8.45,4.88Zm28-20-9.85,5.71,1.05.6,9.85-5.71Zm4.2,5.33-14.31,8.29,1,.6,14.32-8.29Zm-15.22,8.81-10.62,6.12,1,.61,10.63-6.13Zm9.23-6.73-1.05-.6-4.63,2.69,1.05.61Zm-6.43-5.23L329.16,274l1,.6L341.73,268Zm-3.6,8.46,9.66-5.6-1.05-.6-9.66,5.6Zm10.56-6.12,10.5-6.09-1.05-.6L346.6,269.1Zm3.21-4.44,5-2.94-1-.6-5.05,2.94Zm-37.56,17.89-3.74,2.16,1,.61,3.74-2.17Zm49.32-16.95-1-.61L354,270l1.05.6Zm-3.44-1.81L347,271.47l1.05.6L360.22,265ZM326.36,286l-7.86,4.52,1.05.61,7.85-4.52Zm-3.08-6-11.5,6.63,1.05.6,11.5-6.62ZM319,285.07,314,287.9l1.05.6,4.93-2.83Zm9.37-2.83-12.06,6.95,1.05.6,12.06-6.94Z" transform="translate(-191.02 -97.02)"/><path class="cls-11" d="M339,283.14l1.05.6,2.1-1.21-1.05-.6Zm12-4.33-14,8.05,1,.6,14-8Zm-8.95,7.74,1.05.6,5.93-3.41-1.05-.6Zm11.33-3.95-10.62,6.12,1,.61,10.63-6.12Zm-25.29,8,11.06-6.37-1.05-.6L327.06,290Zm5.66,1.92,8.45-4.88-1.05-.6L332.72,292Zm28-20-9.85,5.71,1.05.6,9.85-5.71ZM360,280l-1.05-.6-4.63,2.69,1.05.61Zm-6.43-5.23L342,281.41l1,.6,11.53-6.64Zm-3.6,8.46,9.66-5.6-1-.6-9.66,5.6Zm10.56-6.12L371,271l-1.05-.6-10.49,6.09Zm3.21-4.44,5-2.94-1-.6-5.05,2.94Zm-37.56,17.89-3.74,2.16,1,.6,3.74-2.16ZM372,271.79l-12.21,7.08,1.05.6,12.21-7.08Zm-35.89,15.59L324.66,294l1,.61L337.2,288Zm-4.33,5.09-4.93,2.83,1.05.6,4.93-2.83Zm9.38-2.83-12.07,6.95,1.05.6,12.06-6.95Z" transform="translate(-191.02 -97.02)"/><path class="cls-11" d="M350.28,289.42l1,.6,2.1-1.21-1-.6Zm12-4.33-14,8.05,1,.6,14-8.05Zm-8.95,7.74,1,.6L360.3,290l-1-.6Zm11.33-3.95L354,295l1.05.61,10.62-6.12Zm-25.3,8,11.06-6.37-1.05-.6-11.06,6.37Zm5.66,1.92,8.45-4.88-1-.6L344,298.23Zm28-20-9.85,5.71,1,.6,9.85-5.71Zm4.2,5.33-14.32,8.29,1,.6,14.31-8.29ZM362,293l-10.63,6.12,1.05.6,10.62-6.12Zm9.22-6.73-1-.6-4.63,2.69,1,.61ZM364.81,281l-11.53,6.65,1,.6,11.53-6.64Zm-3.61,8.46,9.66-5.6-1-.6-9.66,5.6Zm10.57-6.12,10.49-6.09-1-.6-10.5,6.09Zm3.2-4.44,5-2.94-1-.6-5.05,2.94Zm-37.56,17.89L333.67,299l1.05.6,3.74-2.16Zm49.33-16.95-1.05-.61-7.56,4.4,1,.6Zm-3.44-1.81-12.21,7.08,1,.6,12.21-7.08Zm-32.82,21.57-7.85,4.52,1,.61,7.86-4.52Zm-3.07-6-11.5,6.62,1,.61,11.5-6.63Zm-4.33,5.09-4.93,2.83,1,.6,4.93-2.83Zm9.37-2.83-12.06,6.95,1,.6,12.06-7Zm7.64.78,1,.6,5.94-3.41-1.05-.6Zm11.33-3.95-10.63,6.12,1,.61,10.62-6.12Zm-19.64,9.95,8.45-4.88-1-.6-8.45,4.88ZM378,290.14l-1-.6-4.63,2.69,1,.61Zm-10,3.23,9.66-5.6-1.05-.6-9.66,5.6Zm10.56-6.12L389,281.16l-1-.6-10.5,6.09Zm11.53-5.31L377.85,289l1,.6,12.21-7.08Zm-40.22,20.68-4.93,2.83,1,.6,4.92-2.83Zm9.37-2.83-12.06,6.95,1,.6,12.07-6.95Z" transform="translate(-191.02 -97.02)"/><path class="cls-11" d="M392.21,291.22l1.05.6,3.75-2.17-1-.6Zm8.47-2.31-8.44,4.88,1,.6,8.45-4.88Zm-16.77,8.31,8.45-4.88-1.05-.6-8.45,4.87ZM394,299.15l8.89-5.13-1.05-.6L393,298.55Zm-12.07-2-2.31,1.34,1,.6,2.32-1.33Zm9.37-2.82-9.45,5.45,1.05.61,9.45-5.46Z" transform="translate(-191.02 -97.02)"/><path class="cls-13" d="M359.67,306.77,378.06,310h0a.2.2,0,0,0,.21-.17.21.21,0,0,0-.17-.25l-16.59-2.92a13.85,13.85,0,0,1,8.95-1.29c3.05.53,5.35,2,6,3.75l.4-.15c-.71-1.92-3.14-3.46-6.34-4a14.23,14.23,0,0,0-9.32,1.39l.17.3-1.66-.3a.22.22,0,0,0-.25.18A.21.21,0,0,0,359.67,306.77Zm-2.54,3.75a.22.22,0,0,0,.17.25l1.72.3-.33.1c.61,2,3.06,3.64,6.41,4.23a16,16,0,0,0,2.67.23,13.47,13.47,0,0,0,6.55-1.57l-.19-.32,1.56.26h0a.22.22,0,0,0,.21-.18.22.22,0,0,0-.17-.25l-9.84-1.68a.21.21,0,0,0-.24.17.21.21,0,0,0,.17.25l8.2,1.4a13.94,13.94,0,0,1-8.88,1.26c-3.16-.56-5.48-2.05-6.06-3.89l4.79.84h0a.2.2,0,0,0,.21-.17.21.21,0,0,0-.17-.25l-6.6-1.16A.2.2,0,0,0,357.13,310.52Zm-1.41,1.71c1.17,2.4,4.31,4.27,8.4,5a20.88,20.88,0,0,0,3.64.31c5.55,0,10.4-2.08,12.06-5.17a4.44,4.44,0,0,0,.11-4.23c-1.16-2.41-4.3-4.27-8.39-5a20.88,20.88,0,0,0-3.64-.32c-5.55,0-10.4,2.08-12.07,5.18A4.5,4.5,0,0,0,355.72,312.23Zm.49-4c1.57-2.92,6.38-4.95,11.69-4.95a20.08,20.08,0,0,1,3.57.31c3.95.69,7,2.47,8.08,4.75a4.08,4.08,0,0,1-.1,3.85c-1.57,2.91-6.38,4.95-11.69,4.95a21.06,21.06,0,0,1-3.57-.31c-4-.7-7-2.48-8.08-4.76A4.06,4.06,0,0,1,356.21,308.2Zm.7,0a4,4,0,0,0-.1,3.8c1.05,2.18,3.91,3.87,7.63,4.53a19.24,19.24,0,0,0,3.32.28c5.06,0,9.48-1.88,11-4.69a4,4,0,0,0,.1-3.8c-1.06-2.18-3.91-3.87-7.63-4.53a19.24,19.24,0,0,0-3.32-.29C362.83,303.52,358.42,305.41,356.91,308.22Zm.18.1c1.46-2.7,5.9-4.59,10.81-4.59a18.78,18.78,0,0,1,3.28.29c3.66.64,6.45,2.29,7.48,4.41a3.8,3.8,0,0,1-.1,3.6c-1.45,2.7-5.89,4.59-10.8,4.59a19.8,19.8,0,0,1-3.28-.28c-3.66-.65-6.46-2.3-7.48-4.41A3.85,3.85,0,0,1,357.09,308.32Zm7.82,1.1.94,1-.89,1a.15.15,0,0,0,0,.18.16.16,0,0,0,.15.08l2.1-.23,1.49.86.08,0h.07a.17.17,0,0,0,.09-.11l.26-1.16,1.86-.55a.16.16,0,0,0,.11-.16.16.16,0,0,0-.12-.15l-1.88-.51-.31-1.16a.17.17,0,0,0-.2-.11.17.17,0,0,0-.11.2l.34,1.24a.15.15,0,0,0,.11.11l1.43.39-1.41.42a.19.19,0,0,0-.11.12l-.24,1-1.35-.78a.12.12,0,0,0-.1,0l-1.73.19.72-.82a.15.15,0,0,0,0-.21l-.75-.8,1.74.15a.16.16,0,0,0,0-.31l-2.16-.19a.15.15,0,0,0-.15.08A.17.17,0,0,0,364.91,309.42Zm-4.54-1-1.39.41a.16.16,0,0,0,0,.31l1.42.38.23.86a.18.18,0,0,0,.1.11h.06l.08,0,1.15-.7a.16.16,0,0,0-.17-.28l-1,.59-.2-.74a.15.15,0,0,0-.11-.11l-1-.26.94-.28a.15.15,0,0,0,.11-.12l.18-.74,1,.56a.12.12,0,0,0,.1,0l1.23-.13-.49.55a.15.15,0,0,0,0,.21l.79.85a.17.17,0,0,0,.23,0,.16.16,0,0,0,0-.22L363,309l.66-.75a.17.17,0,0,0,0-.18.15.15,0,0,0-.16-.08l-1.58.17-1.13-.65a.16.16,0,0,0-.24.1Zm14.23,3.61,1.65.15a.16.16,0,0,0,.15-.09.17.17,0,0,0,0-.18l-.7-.74.66-.75a.12.12,0,0,0,0-.17.15.15,0,0,0-.15-.09l-1.59.18-1.13-.65a.14.14,0,0,0-.14,0,.14.14,0,0,0-.09.11l-.2.86-1.4.42a.16.16,0,0,0-.11.15.16.16,0,0,0,.12.15l1.41.39.24.86a.15.15,0,0,0,.15.11h0a.15.15,0,0,0,.11-.2l-.26-.95a.15.15,0,0,0-.11-.11l-1-.26.95-.28a.17.17,0,0,0,.11-.12l.17-.74,1,.57.09,0,1.23-.14-.48.55a.16.16,0,0,0,0,.22l.51.53-1.23-.1a.15.15,0,0,0-.17.14A.15.15,0,0,0,374.6,312.05Z" transform="translate(-191.02 -97.02)"/><path class="cls-14" d="M415.59,295.21,409.7,284s-13.44,11.79-12.86,13.08S415.59,295.21,415.59,295.21Z" transform="translate(-191.02 -97.02)"/><path class="cls-15" d="M426.52,309.73l-18.17-9.07s-.37-.17-.52-.22a70,70,0,0,0-10-3.43h0c-.68-.18-1,0-.78.82a3.68,3.68,0,0,0,1.61,2h0s6.6,4.71,10.81,7.09a5.2,5.2,0,0,0,.71.45l0,0h0l18.37,9.32Z" transform="translate(-191.02 -97.02)"/><path class="cls-16" d="M416,305.83,402.36,299a2.09,2.09,0,0,0-.23-.1,31.34,31.34,0,0,0-4.49-1.54h0c-.31-.08-.08.93.37,1.28h0s3,2.12,4.85,3.19a2.8,2.8,0,0,0,.32.2h0L416.91,309Z" transform="translate(-191.02 -97.02)"/><path class="cls-17" d="M460.86,265.07c.44,1-5.62,4.63-13.54,8.05s-14.7,5.35-15.15,4.32,5.62-4.64,13.54-8.05S460.41,264,460.86,265.07Z" transform="translate(-191.02 -97.02)"/><path class="cls-18" d="M454.42,264.21l-43.63,19.2a4.82,4.82,0,0,0-1.9,1.5l-1.25,1.68a1,1,0,0,0,.7,1.57l2.75.24,45.05-20Z" transform="translate(-191.02 -97.02)"/><path class="cls-19" d="M456.14,268.43l-45.05,20-1.17,2a1,1,0,0,0,.64,1.43l2.67.58,44-19.39Z" transform="translate(-191.02 -97.02)"/><path class="cls-18" d="M457.22,273.05l2.07,3-43.2,19.05A2.24,2.24,0,0,1,414,295l-1-.57a.78.78,0,0,1-.37-1.21l.55-.74Z" transform="translate(-191.02 -97.02)"/><path class="cls-3" d="M468.34,272.21l-5.33-12-8.5,3.76h0l-.05,0c-1.93.86-2.3,4.24-.83,7.55s4.22,5.3,6.15,4.44l.05,0h0Z" transform="translate(-191.02 -97.02)"/><ellipse class="cls-11" cx="465.65" cy="266.23" rx="3.82" ry="6.56" transform="translate(-258.99 114.83) rotate(-23.94)"/><path class="cls-10" d="M462.43,267.74c-1.47-3.31-1.1-6.69.83-7.54l.13-.05a2.29,2.29,0,0,0-.62.17c-1.93.86-2.3,4.24-.83,7.55s4.1,5.2,6,4.49C466.1,272.61,463.75,270.71,462.43,267.74Z" transform="translate(-191.02 -97.02)"/><path class="cls-20" d="M473.65,269.45l-5-11.2-5.14,2.26h0c-1.8.8-2.15,4-.78,7.05s3.95,4.95,5.75,4.15l0,0h0Z" transform="translate(-191.02 -97.02)"/><path class="cls-21" d="M473.63,269.46c-1.81.8-4.38-1.06-5.75-4.15s-1-6.25.77-7.05,4.38,1.06,5.75,4.15S475.43,268.66,473.63,269.46Z" transform="translate(-191.02 -97.02)"/><path class="cls-22" d="M468.12,265.21c-1.25-2.82-1.07-5.68.34-6.78l-.12.05c-1.8.79-2.15,3.95-.77,7s3.94,5,5.74,4.15a1.79,1.79,0,0,0,.44-.27C472,270.07,469.47,268.24,468.12,265.21Z" transform="translate(-191.02 -97.02)"/><path class="cls-23" d="M399.85,293.2a9.87,9.87,0,0,0,1.58,4.08c-2.51.21-4.41.23-4.59-.18S398,295.11,399.85,293.2Z" transform="translate(-191.02 -97.02)"/><path class="cls-3" d="M386.85,340.44a.37.37,0,0,1-.32-.19.38.38,0,0,1,.13-.51L412,325a.37.37,0,0,1,.51.13.36.36,0,0,1-.13.51L387,340.38A.33.33,0,0,1,386.85,340.44Z" transform="translate(-191.02 -97.02)"/><path class="cls-11" d="M309.46,216.12v15.26a3.3,3.3,0,0,0,5.17,2.72l44.16-33.64V173.29a2.21,2.21,0,0,0-3.46-1.83l-37.7,29.17A18.79,18.79,0,0,0,309.46,216.12Z" transform="translate(-191.02 -97.02)"/><path class="cls-3" d="M309.46,231.38V216.12a18.79,18.79,0,0,1,8.17-15.49l37.7-29.17a2.19,2.19,0,0,1,2.16-.19L279,125.91a2.19,2.19,0,0,0-2.16.18l-37.7,29.17a18.76,18.76,0,0,0-8.17,15.49V186a3.27,3.27,0,0,0,2.15,3.09l78.21,45.28,0,0A3.24,3.24,0,0,1,309.46,231.38Z" transform="translate(-191.02 -97.02)"/><path class="cls-10" d="M309.46,231.44V216.18a18.79,18.79,0,0,1,8.17-15.49l37.7-29.17a2.21,2.21,0,0,1,1.4-.38,2.21,2.21,0,0,0-3-.49L316,199.82a18.76,18.76,0,0,0-8.17,15.49v15.26a3.28,3.28,0,0,0,2.6,3.22A3.22,3.22,0,0,1,309.46,231.44Z" transform="translate(-191.02 -97.02)"/><polygon class="cls-24" points="129.48 133.07 131.25 131.89 130.84 133.81 129.48 133.07"/><path class="cls-5" d="M323,227.21V213.52c0-4.45,2.7-10.7,7.23-13.8l31.22-28.4a1.91,1.91,0,0,1,1.91-.16l-1.21-.77a1.93,1.93,0,0,0-1.92.16L329,199c-4.53,3.1-7.24,9.35-7.24,13.8v17.86l-1.22-.56-1,.75,3.48,1.95,1.66-2.92A2.88,2.88,0,0,1,323,227.21Z" transform="translate(-191.02 -97.02)"/><path class="cls-24" d="M323,213.52v19.23l35.63-19.5a13.58,13.58,0,0,0,5.89-11.18V172.94a2,2,0,0,0-3.07-1.62l-31.22,28.4C325.67,202.82,323,209.07,323,213.52Z" transform="translate(-191.02 -97.02)"/><path class="cls-25" d="M316.43,198.87a20.89,20.89,0,0,0-9.1,17.25v13.5L234,187.17l-.16-.07a1.15,1.15,0,0,1-.77-1.09V170.75A16.64,16.64,0,0,1,240.31,157Z" transform="translate(-191.02 -97.02)"/><path class="cls-3" d="M307.33,213.08v16.54L234,187.17l-.16-.07a1.15,1.15,0,0,1-.77-1.09V170.75Z" transform="translate(-191.02 -97.02)"/><path class="cls-6" d="M236.09,187.08l-.17-.06a1.16,1.16,0,0,1-.77-1.1V170.67a16.63,16.63,0,0,1,7.24-13.73l37.7-29.17,1-.59-1-.55L278,127.85,240.31,157a16.64,16.64,0,0,0-7.24,13.73V186a1.15,1.15,0,0,0,.77,1.09l.16.07,73.33,42.45v-1.28Z" transform="translate(-191.02 -97.02)"/><path class="cls-23" d="M335.88,179.23l10.87-8.42-68-39.64-11.17,8.62a2.4,2.4,0,0,0,.14,4.05l61.15,35.65A6.57,6.57,0,0,0,335.88,179.23Z" transform="translate(-191.02 -97.02)"/><polygon class="cls-23" points="49.43 83.23 49.43 92.58 109.33 127.36 109.33 117.89 49.43 83.23"/><polygon class="cls-26" points="50.92 91.96 50.92 84.35 49.43 83.49 49.43 92.58 109.33 127.36 109.33 125.88 50.92 91.96"/><path class="cls-5" d="M314.56,177.62a3.14,3.14,0,0,1-3.07.15l-5-2.87a1,1,0,0,1-.05-1.93,3.14,3.14,0,0,1,3.07-.15l5,2.87A1,1,0,0,1,314.56,177.62Z" transform="translate(-191.02 -97.02)"/><path class="cls-5" d="M324.38,183.26a3.14,3.14,0,0,1-3.07.15l-5-2.87a1.06,1.06,0,0,1-.05-1.94,3.14,3.14,0,0,1,3.07-.14l5,2.86A1.06,1.06,0,0,1,324.38,183.26Z" transform="translate(-191.02 -97.02)"/><path class="cls-20" d="M314.5,175.06l-5-2.86a3.14,3.14,0,0,0-3.07.14,1.06,1.06,0,0,0,.05,1.94l5,2.87a3.14,3.14,0,0,0,3.07-.15A1.06,1.06,0,0,0,314.5,175.06Z" transform="translate(-191.02 -97.02)"/><path class="cls-12" d="M324.33,180.7l-5-2.87a3.14,3.14,0,0,0-3.07.15,1.06,1.06,0,0,0,.05,1.94l5,2.86a3.14,3.14,0,0,0,3.07-.14A1.06,1.06,0,0,0,324.33,180.7Z" transform="translate(-191.02 -97.02)"/><path class="cls-27" d="M324.38,182.22a3.14,3.14,0,0,1-3.07.15l-5-2.87a1.24,1.24,0,0,1-.63-.77,1.08,1.08,0,0,0,.63,1.19l5,2.86a3.14,3.14,0,0,0,3.07-.14,1.13,1.13,0,0,0,.58-1.17A1.35,1.35,0,0,1,324.38,182.22Z" transform="translate(-191.02 -97.02)"/><path class="cls-21" d="M314.56,176.58a3.14,3.14,0,0,1-3.07.15l-5-2.87a1.19,1.19,0,0,1-.63-.77,1.07,1.07,0,0,0,.63,1.19l5,2.87a3.14,3.14,0,0,0,3.07-.15,1.12,1.12,0,0,0,.57-1.17A1.28,1.28,0,0,1,314.56,176.58Z" transform="translate(-191.02 -97.02)"/><polygon class="cls-3" points="29.97 101.35 29.97 105.2 28.35 104.21 28.35 100.35 29.97 101.35"/><polygon class="cls-11" points="29.96 101.35 29.96 105.2 50.76 93.08 50.76 89.23 29.96 101.35"/><polygon class="cls-10" points="50.76 89.23 29.96 101.35 28.35 100.35 49.17 88.23 50.76 89.23"/><polygon class="cls-3" points="82.1 139.34 82.1 141.27 24.02 108.38 24.02 106.45 82.1 139.34"/><polygon class="cls-11" points="82.09 139.34 82.09 141.27 108.97 125.6 108.97 123.69 82.09 139.34"/><polygon class="cls-10" points="108.97 123.69 82.09 139.34 24.02 106.45 50.92 90.78 108.97 123.69"/><polygon class="cls-3" points="88.78 135.36 88.78 139.22 87.15 138.23 87.15 134.37 88.78 135.36"/><polygon class="cls-11" points="88.76 135.36 88.76 139.22 109.57 127.09 109.57 123.25 88.76 135.36"/><polygon class="cls-10" points="109.57 123.25 88.76 135.36 87.15 134.37 107.97 122.24 109.57 123.25"/><polygon class="cls-3" points="152.01 45.18 152.01 75.81 84.7 37.69 84.7 7.07 152.01 45.18"/><polygon class="cls-11" points="151.99 45.18 151.99 75.81 153.82 74.83 153.82 44.23 151.99 45.18"/><polygon class="cls-10" points="153.82 44.23 151.99 45.18 84.7 7.07 86.56 6.09 153.82 44.23"/><polygon class="cls-9" points="147 49.18 147 76.01 88.84 43.07 88.84 16.24 147 49.18"/><polygon class="cls-28" points="54.95 153.77 0 122.04 52.85 90.54 107.8 122.27 54.95 153.77"/><polygon class="cls-9" points="55.07 152.4 0.12 120.68 52.84 90.45 107.79 122.18 55.07 152.4"/><path class="cls-11" d="M270.1,206.73l-1,.57,2,1.15,1-.57Zm-10.36-2.38L273,212l1-.57-13.23-7.63Zm3.85,3.53-1,.57,5.62,3.23,1-.57Zm-6.11.07,10.07,5.79,1-.57-10.07-5.8Zm25.95,6.46-10.48-6-1,.57,10.48,6Zm-5.37,1.82-8-4.62-1,.57,8,4.62Zm-28.5-17.78,9.32,5.41,1-.57-9.32-5.41Zm7.07,9,1-.57-4.38-2.55-1,.57Zm.71-6.93,10.92,6.29,1-.57L258.33,200Zm5.39,6.87-9.15-5.31-1,.57,9.15,5.31Zm-10-5.8-9.94-5.77-1,.57,9.94,5.77Zm-3-4.2-4.78-2.79-1,.57L248.7,198Zm33.6,18.08,3.55,2.05,1-.57-3.54-2ZM239.83,197.7l11.56,6.71,1-.58-11.56-6.7Zm34,14.77,10.89,6.28,1-.58-10.89-6.27Zm4.11,4.82,4.66,2.68,1-.57-4.66-2.68Zm-8.88-2.68,11.42,6.58,1-.57L270,214Z" transform="translate(-191.02 -97.02)"/><path class="cls-11" d="M259.44,212.68l-1,.57,2,1.15,1-.57Zm-10.36-2.38,13.23,7.63,1-.57-13.23-7.63Zm3.85,3.53-1,.57,5.62,3.23,1-.57Zm-6.11.06,10.07,5.8,1-.57-10.07-5.8Zm25.95,6.47-10.48-6-1,.58,10.48,6Zm-5.37,1.81-8-4.62-1,.58,8,4.62ZM238.9,204.4l9.32,5.41,1-.57-9.32-5.41Zm-4,5,13.56,7.85,1-.57-13.56-7.85Zm14.41,8.34,10.07,5.8,1-.57-10.07-5.8ZM246,213.4l1-.57-4.38-2.55-1,.57Zm.71-6.93,10.92,6.29,1-.57-10.92-6.29Zm5.39,6.87L242.92,208l-1,.57,9.15,5.31Zm-10-5.8-9.94-5.77-1,.57,9.94,5.77Zm-3-4.2-4.78-2.79-1,.57,4.78,2.79Zm33.6,18.08,3.54,2.05,1-.57-3.54-2.05ZM234.06,209l1-.58-7.16-4.16-1,.57Zm-4.89-5.31,11.56,6.7,1-.57-11.56-6.7Zm31.08,20.44,7.44,4.28,1-.57-7.44-4.29Zm2.91-5.67,10.89,6.27,1-.57-10.89-6.27Zm4.11,4.82,4.66,2.68,1-.57-4.66-2.68Zm-8.88-2.68,11.42,6.58,1-.57L259.38,220Zm-11.87-3.06-1,.57,5.62,3.23,1-.57Zm-6.1.06,10.06,5.8,1-.57L241.41,217ZM261,225.84l-8-4.62-1,.57,8,4.62Zm-21.43-8.77,1-.57-4.38-2.56-1,.57Zm6.1-.07-9.15-5.3-1,.57,9.15,5.3Zm-10-5.8-9.94-5.76-1,.57,9.94,5.77Zm-12.9-3.88,11.57,6.7,1-.57-11.57-6.7Zm38.1,19.59,4.67,2.68,1-.58-4.67-2.68ZM252,224.23l11.43,6.58,1-.57L253,223.66Z" transform="translate(-191.02 -97.02)"/><path class="cls-11" d="M218.15,213.48l-1,.57,3.56,2,1-.57Zm-5.45.44,8,4.62,1-.57-8-4.62Zm17.87,6.73-8-4.62-1,.57,8,4.62ZM221,222.48l-8.42-4.86-1,.57,8.42,4.86Zm9.45-.77,2.2,1.27,1-.57-2.2-1.27ZM221.55,219l8.95,5.17,1-.57-9-5.17Z" transform="translate(-191.02 -97.02)"/><path class="cls-2" d="M422.46,264.31l-49.72-29c-3.21-1.85-2.8-5.09.9-7.23l75-43.29c3.7-2.14,9.31-2.37,12.52-.52l49.72,29c3.21,1.85,2.8,5.09-.9,7.23l-75,43.29C431.28,265.93,425.67,266.16,422.46,264.31Z" transform="translate(-191.02 -97.02)"/><path class="cls-3" d="M502.77,204.74a3.71,3.71,0,0,0-2.08-2.7l-6.11-3.74,1.3-.48c2.88-1.07,3.23-3.28.58-4.95a13.2,13.2,0,0,0-10.25-1.14l-1.48.54-6.11-3.74a13,13,0,0,0-5-1.63,12.82,12.82,0,0,0-5.85.47l-5.36,2L495,209.31l5.36-2C501.92,206.73,502.8,205.8,502.77,204.74Zm-13.83-9.19c-1.25-.76-1.18-1.78.14-2.26a6.06,6.06,0,0,1,4.65.49c1.24.76,1.18,1.78-.14,2.26A6.05,6.05,0,0,1,488.94,195.55Z" transform="translate(-191.02 -97.02)"/><path class="cls-4" d="M422.81,263.29l-49.74-29c-3.2-1.85-2.8-5.07.89-7.19l74.83-43.2c3.69-2.12,9.26-2.35,12.46-.51l49.74,29c3.19,1.85,2.79,5.07-.89,7.2l-74.84,43.19C431.58,264.9,426,265.13,422.81,263.29Z" transform="translate(-191.02 -97.02)"/><path class="cls-5" d="M422.81,262.27l-49.74-29c-3.2-1.84-2.8-5.06.89-7.19l74.83-43.19c3.69-2.13,9.26-2.36,12.46-.51l49.74,29c3.19,1.84,2.79,5.06-.89,7.19l-74.84,43.19C431.58,263.88,426,264.11,422.81,262.27Z" transform="translate(-191.02 -97.02)"/><path class="cls-6" d="M510.1,218l-74.84,43.19c-3.68,2.13-9.26,2.36-12.45.52l-49.74-29a3.8,3.8,0,0,1-2.14-2.86,3.58,3.58,0,0,0,2.14,3.42l49.74,29c3.19,1.84,8.77,1.61,12.45-.52l74.84-43.19c2.14-1.23,3.16-2.84,3-4.32C513,215.56,512,216.92,510.1,218Z" transform="translate(-191.02 -97.02)"/><polygon class="cls-7" points="236.79 160.99 185.59 126.37 265.85 87.35 317.05 121.97 236.79 160.99"/><polygon class="cls-8" points="237.75 159.93 186.56 125.3 266.82 86.28 318.01 120.91 237.75 159.93"/><polygon class="cls-7" points="237.19 162.14 183.12 130.92 261.19 85.85 315.26 117.06 237.19 162.14"/><polygon class="cls-9" points="238.04 160.88 184.52 129.98 261.81 85.36 315.33 116.26 238.04 160.88"/><path class="cls-7" d="M502.47,204.11a3.86,3.86,0,0,0-2.17-2.82l-6.11-3.53,1.22-.7c2.69-1.55,2.88-4.1.22-5.7a10.84,10.84,0,0,0-9.9-.07l-1.37.8-6.11-3.53a10.54,10.54,0,0,0-4.88-1.25,10.77,10.77,0,0,0-5.57,1.23l-5,2.36,32.53,18.78,5-2.35C501.8,206.48,502.58,205.31,502.47,204.11Zm-13.87-8.8c-1.24-.72-1.24-1.87,0-2.59a5,5,0,0,1,4.49,0c1.24.72,1.25,1.88,0,2.59A5,5,0,0,1,488.6,195.31Z" transform="translate(-191.02 -97.02)"/><path class="cls-3" d="M502.11,203a3.85,3.85,0,0,0-2.17-2.83l-6.1-3.52,1.21-.7c2.69-1.55,2.88-4.11.22-5.7a10.81,10.81,0,0,0-9.9-.07L484,191l-6.11-3.52a10.54,10.54,0,0,0-4.88-1.26,10.8,10.8,0,0,0-5.57,1.24l-5,2.91L495,209.17l5-2.92C501.44,205.4,502.22,204.24,502.11,203Zm-13.86-8.8c-1.25-.72-1.25-1.88,0-2.59a4.94,4.94,0,0,1,4.49,0,1.37,1.37,0,0,1,0,2.59A5,5,0,0,1,488.25,194.24Z" transform="translate(-191.02 -97.02)"/><path class="cls-10" d="M492.72,191.15a5,5,0,0,0-4.49,0,1.45,1.45,0,0,0-.89,1.54,1.74,1.74,0,0,1,.89-1,4.94,4.94,0,0,1,4.49,0,1.71,1.71,0,0,1,.9,1.05A1.47,1.47,0,0,0,492.72,191.15Z" transform="translate(-191.02 -97.02)"/><path class="cls-10" d="M495.05,195.49l-1.21.7.43.25.78-.45c1.52-.88,2.24-2.07,2.1-3.23A3.74,3.74,0,0,1,495.05,195.49Z" transform="translate(-191.02 -97.02)"/><path class="cls-11" d="M500,205.75l-5,2.92-32.1-18.54-.43.25L495,209.17l5-2.92c1.47-.85,2.25-2,2.14-3.21v0A3.84,3.84,0,0,1,500,205.75Z" transform="translate(-191.02 -97.02)"/><polygon class="cls-10" points="305.17 108.51 276.65 92.05 277.87 91.35 306.39 107.82 305.17 108.51"/><polygon class="cls-11" points="304.88 108.87 276.36 92.4 277.58 91.71 306.11 108.17 304.88 108.87"/><path class="cls-12" d="M466.9,204.55l1.32-.76-2.65-1.53-1.32.76Zm11.05,1.6-14.86-8.58-1.32.76,14.87,8.58Zm-25.48-9.94,10.65,6.15,1.31-.76-10.65-6.15Zm35.85,15.92-9.23-5.33-1.32.76,9.23,5.33Zm-7.18-.88-11.78-6.81-1.32.76L479.82,212Zm7,2.3,2.76,1.59,1.31-.76-2.76-1.59ZM452.65,194.8l-4.72-2.73-1.32.76,4.72,2.73Zm9.3,2.11-11.2-6.46-1.31.76,11.2,6.46Z" transform="translate(-191.02 -97.02)"/><path class="cls-11" d="M465.54,208.25l-1,.57,2,1.15,1-.57Zm-10.36-2.38,13.23,7.62,1-.57-13.24-7.62Zm3.84,3.52-1,.58,5.62,3.23,1-.57Zm-6.1.07,10.07,5.8,1-.57-10.07-5.8Zm25.94,6.46-10.47-6-1,.57,10.47,6Zm-5.36,1.82-8-4.62-1,.57,8,4.62ZM445,200l9.33,5.4,1-.57L446,199.39Zm-4,5,13.56,7.86,1-.57L442,204.44Zm14.42,8.35,10.06,5.8,1-.57-10.06-5.8ZM452.07,209l1-.57-4.39-2.56-1,.57Zm.71-6.94,10.92,6.3,1-.58-10.92-6.29Zm5.39,6.87L449,203.6l-1,.57,9.15,5.3Zm-10-5.8-9.95-5.76-1,.57,9.95,5.76Zm-3-4.2-4.78-2.79-1,.57,4.78,2.79ZM478.73,217l3.54,2,1-.58-3.54-2Zm-38.57-12.47,1-.57L434,199.79l-1,.57Zm-4.9-5.3,11.57,6.7,1-.57-11.57-6.71Zm31.09,20.43,7.44,4.28,1-.57-7.44-4.28Zm2.91-5.66,10.89,6.27,1-.57-10.89-6.28Zm4.1,4.81,4.67,2.68,1-.57-4.67-2.68Zm-8.88-2.67,11.43,6.58,1-.57-11.43-6.58Z" transform="translate(-191.02 -97.02)"/><path class="cls-11" d="M453.35,215.26l-1,.57,2,1.15,1-.57ZM443,212.88l13.23,7.62,1-.57L444,212.3Zm3.85,3.52-1,.58,5.62,3.23,1-.57Zm-6.1.07,10.06,5.8,1-.57-10.06-5.8Zm25.94,6.46-10.48-6-1,.57,10.48,6Zm-5.36,1.82-8-4.62-1,.57,8,4.62ZM432.8,207l9.33,5.41,1-.57-9.33-5.41Zm7.08,9,1-.58-4.39-2.55-1,.57Zm.71-6.94,10.92,6.29,1-.57-10.91-6.29Zm5.39,6.87-9.15-5.31-1,.58,9.15,5.3Zm-10-5.8L426,204.35l-1,.57,9.94,5.76Zm-3-4.2-4.79-2.79-1,.57,4.79,2.79ZM466.53,224l3.55,2,1-.57-3.55-2Zm-43.46-17.78,11.57,6.71,1-.57-11.57-6.71Zm34,14.77L468,227.27l1-.57-10.89-6.28Zm4.1,4.82,4.67,2.68,1-.57-4.67-2.68Zm-8.88-2.67,11.43,6.58,1-.57-11.43-6.59Z" transform="translate(-191.02 -97.02)"/><path class="cls-11" d="M442.69,221.2l-1,.58,2,1.15,1-.58Zm-10.37-2.38,13.23,7.63,1-.57-13.23-7.63Zm3.85,3.53-1,.57,5.62,3.24,1-.58Zm-6.1.07,10.06,5.8,1-.58-10.06-5.79ZM456,228.88l-10.48-6-1,.57,10.48,6Zm-5.36,1.82-8-4.62-1,.57,8,4.62Zm-28.51-17.78,9.33,5.41,1-.57-9.33-5.41Zm-4,5.05,13.56,7.85,1-.57-13.56-7.85Zm14.42,8.35,10.06,5.8,1-.58-10.06-5.79Zm-3.36-4.4,1-.57-4.38-2.55-1,.57Zm.71-6.93,10.91,6.29,1-.57-10.91-6.29Zm5.39,6.87-9.15-5.31-1,.57,9.15,5.31Zm-10-5.8-9.94-5.77-1,.58,9.94,5.76Zm-3-4.2-4.79-2.79-1,.57,4.79,2.79ZM455.87,230l3.55,2,1-.57-3.55-2Zm-38.56-12.47,1-.57-7.17-4.17-1,.58Zm-4.9-5.31L424,218.88l1-.57L413.4,211.6Zm31.08,20.44,7.45,4.28,1-.57L444.48,232Zm2.92-5.67,10.89,6.28,1-.57-10.89-6.28Zm4.1,4.82,4.67,2.68,1-.57-4.67-2.68Zm-8.88-2.68,11.43,6.59,1-.58-11.43-6.58ZM429.77,226l-1,.57,5.61,3.23,1-.57Zm-6.11.06,10.07,5.8,1-.57-10.07-5.8Zm20.58,8.28-8-4.62-1,.57,8,4.63Zm-21.43-8.77,1-.57-4.38-2.56-1,.58Zm6.1-.06-9.15-5.31-1,.57,9.15,5.31Zm-10-5.8L409,214l-1,.57,9.94,5.77ZM406,215.84l11.56,6.7,1-.57L407,215.27Zm38.1,19.59,4.66,2.68,1-.57-4.66-2.68Zm-8.88-2.68,11.42,6.58,1-.57-11.42-6.58Z" transform="translate(-191.02 -97.02)"/><path class="cls-11" d="M401.4,222l-1,.57,3.56,2.06,1-.57Zm-5.46.44,8,4.62,1-.57-8-4.62Zm17.87,6.73-8-4.62-1,.57,8,4.62ZM404.22,231l-8.42-4.86-1,.57,8.42,4.86Z" transform="translate(-191.02 -97.02)"/><path class="cls-18" d="M439.84,238.48a.2.2,0,0,0-.23-.17l-1.58.28.16-.28a13.5,13.5,0,0,0-8.83-1.32c-3,.53-5.33,2-6,3.81l.37.14c.63-1.68,2.81-3,5.7-3.55a13.19,13.19,0,0,1,8.48,1.22l-15.72,2.77a.2.2,0,0,0-.16.23.2.2,0,0,0,.2.17h0l17.42-3.07A.2.2,0,0,0,439.84,238.48Zm2,3.62-6.25,1.1a.2.2,0,0,0,0,.4h0l4.54-.81c-.55,1.75-2.75,3.17-5.74,3.69a13.14,13.14,0,0,1-8.41-1.19l7.76-1.33a.2.2,0,0,0,.17-.23.2.2,0,0,0-.23-.16l-9.32,1.59a.21.21,0,0,0-.16.24.19.19,0,0,0,.19.16h0l1.47-.25-.18.3a12.69,12.69,0,0,0,6.2,1.49,14.44,14.44,0,0,0,2.54-.22c3.16-.56,5.49-2.09,6.07-4l-.32-.1,1.63-.29a.2.2,0,0,0,.17-.23A.21.21,0,0,0,441.85,242.1Zm1.46-2.23c-1.57-2.93-6.17-4.9-11.43-4.9a19.84,19.84,0,0,0-3.45.3c-3.87.68-6.84,2.45-7.95,4.72a4.26,4.26,0,0,0,.11,4c1.58,2.93,6.17,4.9,11.43,4.9a19.84,19.84,0,0,0,3.45-.3c3.87-.68,6.84-2.45,7.95-4.72A4.26,4.26,0,0,0,443.31,239.87Zm-.25,3.83c-1.05,2.16-3.91,3.85-7.66,4.51a19.94,19.94,0,0,1-3.38.29c-5,0-9.59-1.93-11.08-4.69a3.85,3.85,0,0,1-.09-3.64c1-2.16,3.91-3.85,7.65-4.51a19.94,19.94,0,0,1,3.38-.29c5,0,9.59,1.93,11.08,4.69A3.88,3.88,0,0,1,443.06,243.7Zm-11.17-8.07a18.26,18.26,0,0,0-3.15.27c-3.53.62-6.23,2.23-7.23,4.29a3.8,3.8,0,0,0,.1,3.6c1.43,2.66,5.61,4.45,10.4,4.45a18.18,18.18,0,0,0,3.15-.27c3.53-.62,6.23-2.23,7.23-4.29a3.83,3.83,0,0,0-.09-3.6C440.86,237.42,436.68,235.63,431.89,235.63Zm10.32,8c-1,2-3.62,3.57-7.08,4.18A17.92,17.92,0,0,1,432,248c-4.64,0-8.85-1.79-10.23-4.35a3.62,3.62,0,0,1-.09-3.41c1-2,3.62-3.57,7.09-4.18a17.8,17.8,0,0,1,3.11-.27c4.65,0,8.85,1.79,10.23,4.35A3.62,3.62,0,0,1,442.21,243.59Z" transform="translate(-191.02 -97.02)"/><path class="cls-18" d="M426.44,243.78a.26.26,0,0,1-.24-.2.25.25,0,0,1,.2-.29l12.17-2.3a.25.25,0,1,1,.1.48l-12.18,2.3Z" transform="translate(-191.02 -97.02)"/><path class="cls-18" d="M427.53,242.17a.24.24,0,0,1-.24-.2.25.25,0,0,1,.19-.29l8.87-1.67a.23.23,0,0,1,.28.19.24.24,0,0,1-.19.29l-8.87,1.68Z" transform="translate(-191.02 -97.02)"/><path class="cls-4" d="M415.76,244.91h-.18a.47.47,0,0,1-.41-.37c-.51-2.1.22-4.41,2.23-7a3.35,3.35,0,0,0-1-1.13c-.09-.08-.47-.35-.55-.41a3.79,3.79,0,0,1-.72,1.55.46.46,0,0,1-.39.2h-.1a.48.48,0,0,1-.37-.37,7.22,7.22,0,0,1-.2-3.59,3.9,3.9,0,0,1,.78-1.46l-1.45.22a6.64,6.64,0,0,1-.42,5.45.45.45,0,0,1-.21.2,3.24,3.24,0,0,1-1.49.33,3.94,3.94,0,0,1-.77-.07,9.43,9.43,0,0,1-1.05,4,.49.49,0,0,1-.44.27,2.31,2.31,0,0,1-1.83-1.17,3.45,3.45,0,0,1-.31-1.66c0-1.33,0-2.67,0-4a4.94,4.94,0,0,1-.86-1.92.77.77,0,0,1-.11-.2,5.71,5.71,0,0,1-.61-2.53,4.67,4.67,0,0,0-.52-2.16l-.12-.26.88-.43.13.27a5.7,5.7,0,0,1,.6,2.53c0,.22,0,.43,0,.66a.57.57,0,0,1,.27-.13l.91-.1a.54.54,0,0,1,.38.13.51.51,0,0,1,.15.39c-.05.78-.09,1.56-.12,2.35a4.14,4.14,0,0,0,.45.07,2.68,2.68,0,0,1,1.09.29,1.68,1.68,0,0,1,.75,1.14,9,9,0,0,1,.24,1.47,3.55,3.55,0,0,0,.79.09,2.36,2.36,0,0,0,.92-.16,5.74,5.74,0,0,0,.08-5,.5.5,0,0,1,0-.43.49.49,0,0,1,.36-.25l4.59-.68a.5.5,0,0,1,.54.4.49.49,0,0,1-.39.56,3,3,0,0,0-2.38,2.08.46.46,0,0,1,.3-.11h0a.47.47,0,0,1,.49.35,3.94,3.94,0,0,1,.1.47,4,4,0,0,0,.76.65l.34.25a4.54,4.54,0,0,1,1,1.09l.32-.37c.38-.44.76-.87,1.15-1.3.78-.88,1.59-1.78,2.29-2.71a3.82,3.82,0,0,1,.85-1.24,1.07,1.07,0,0,1,.44.15,32.27,32.27,0,0,1-2.85,4.45c-.39.43-.77.85-1.14,1.28-.19.22-.39.46-.58.7a4.78,4.78,0,0,1,.22,2.14,11.93,11.93,0,0,1-1.49,4A1.76,1.76,0,0,1,415.76,244.91Zm2-6.28c-1.38,2-1.95,3.67-1.74,5.21a1.44,1.44,0,0,0,.36-.47,11.28,11.28,0,0,0,1.39-3.71A3.94,3.94,0,0,0,417.77,238.63Zm-9.86-1.69c0,.95,0,1.91,0,2.85a2.6,2.6,0,0,0,.19,1.22,1.32,1.32,0,0,0,.7.59,8.42,8.42,0,0,0,.78-3.5A5.7,5.7,0,0,1,407.91,236.94Zm0-1.42c.17.22.34.41.47.55a6.38,6.38,0,0,0,1.07.89c0-.27-.09-.53-.15-.79s-.16-.45-.3-.54a2.13,2.13,0,0,0-.71-.16l-.38-.05Zm7-.68a4.71,4.71,0,0,0,0,.75,2.41,2.41,0,0,0,0-.6Zm-7.84-2.24a2.31,2.31,0,0,0,0,1.05l.06-1.05Z" transform="translate(-191.02 -97.02)"/><path class="cls-18" d="M506.31,233.49H477.87v4.39c0,4.57,6.36,8.28,14.22,8.28s14.22-3.71,14.22-8.28c0,0,0-.08,0-.12h0Z" transform="translate(-191.02 -97.02)"/><ellipse class="cls-19" cx="301.06" cy="136.53" rx="14.22" ry="8.28"/><path class="cls-9" d="M492.09,241.79c-7.77,0-14.08-3.62-14.22-8.13v.15c0,4.57,6.36,8.28,14.22,8.28s14.22-3.71,14.22-8.28c0-.05,0-.1,0-.15C506.16,238.17,499.85,241.79,492.09,241.79Z" transform="translate(-191.02 -97.02)"/><path class="cls-18" d="M499.62,220.39H484.55v12.83c0,2.42,3.37,4.39,7.54,4.39s7.53-2,7.53-4.39v-.06h0Z" transform="translate(-191.02 -97.02)"/><circle class="cls-29" cx="301.06" cy="119.71" r="10.91"/><path class="cls-18" d="M493.84,206a10.9,10.9,0,0,1-5,20.6,10.29,10.29,0,0,1-1.76-.16A10.9,10.9,0,1,0,493.84,206Z" transform="translate(-191.02 -97.02)"/><circle class="cls-19" cx="297.59" cy="116.09" r="4.42"/><polygon class="cls-6" points="188.81 118.64 186.86 116.5 158.04 101.06 158.6 100.45 155.9 98.5 154.93 101.34 154.66 103.04 188.81 118.64"/><path class="cls-3" d="M379.83,215.66h0a2.33,2.33,0,0,1-3.16,1l-31-16.55s1.93-1.65,1.95-1.64Z" transform="translate(-191.02 -97.02)"/><path class="cls-10" d="M379.42,216.08l-32.2-17.24s-.92.76-1.49,1.24l-.05,0s1.93-1.65,1.95-1.64l32.2,17.24a2.42,2.42,0,0,1-.63.75A2.37,2.37,0,0,0,379.42,216.08Z" transform="translate(-191.02 -97.02)"/><path class="cls-24" d="M419.34,230.8c.89.48,3.64,1.16,4.12.28s-1.51-3-2.39-3.48a1.82,1.82,0,1,0-1.73,3.2Z" transform="translate(-191.02 -97.02)"/><path class="cls-3" d="M403.71,227.45c-4.68-2.46,1.57-14.51,6.68-11.55s10.75,10.63,10.75,10.63h0a2.55,2.55,0,0,1,.1,3.12,2.44,2.44,0,0,1-2.66,1.63h0S408.38,229.91,403.71,227.45Z" transform="translate(-191.02 -97.02)"/><path class="cls-30" d="M406.81,226.22c-3.25-1.71-1.21-8.07,2.06-10.78-4.71-.23-9.38,9.79-5.16,12,4.67,2.46,14.87,3.83,14.87,3.83h0a2.33,2.33,0,0,0,2.48-1.33C418.83,229.63,410.81,228.32,406.81,226.22Z" transform="translate(-191.02 -97.02)"/><path class="cls-20" d="M392.12,221.37l6.4-11.88,12,6.4h0l0,0c1.91,1,2,4.52.26,7.8s-4.75,5.11-6.66,4.08l-.05,0h0Z" transform="translate(-191.02 -97.02)"/><path class="cls-25" d="M420.22,226.43l0,0s-3.4-3.39-7-6.64a9.42,9.42,0,0,1-.74,3c3.54,2.46,7,4.69,7,4.69h0c1.05.64,1.42.74,1.64.46S420.93,227.1,420.22,226.43Z" transform="translate(-191.02 -97.02)"/><path class="cls-31" d="M407.24,226.56l-.05,0h0l-12-6.4-3.11,1.23,12,6.39h0l.05,0c1.15.62,2.69.2,4.12-.95A2.5,2.5,0,0,1,407.24,226.56Z" transform="translate(-191.02 -97.02)"/><path class="cls-32" d="M392.14,221.38c1.91,1,4.89-.79,6.66-4.07s1.65-6.77-.26-7.8-4.89.79-6.66,4.07S390.23,220.36,392.14,221.38Z" transform="translate(-191.02 -97.02)"/><path class="cls-3" d="M348.45,197.91l6.4-11.88,43.75,23.58h0l0,0c1.91,1,2,4.52.26,7.8s-4.75,5.1-6.66,4.07l-.05,0h0Z" transform="translate(-191.02 -97.02)"/><path class="cls-30" d="M395.36,220.29l-.05,0h0l-43.76-23.58,5.19-9.62-1.89-1-6.4,11.88,43.75,23.58h0l.05,0c1.15.63,2.7.2,4.13-.95A2.38,2.38,0,0,1,395.36,220.29Z" transform="translate(-191.02 -97.02)"/><path class="cls-10" d="M348.47,197.92c1.91,1,4.89-.79,6.66-4.07s1.65-6.77-.26-7.8-4.89.79-6.66,4.07S346.56,196.89,348.47,197.92Z" transform="translate(-191.02 -97.02)"/><path class="cls-3" d="M348.45,197.91Z" transform="translate(-191.02 -97.02)"/><path class="cls-3" d="M348.45,197.91Z" transform="translate(-191.02 -97.02)"/><path class="cls-8" d="M354.85,193.79c1.77-3.28,1.65-6.77-.26-7.8l-.13-.06a2.38,2.38,0,0,1,.63.23c1.91,1,2,4.52.26,7.8s-4.61,5-6.53,4.13C350.71,198.5,353.27,196.73,354.85,193.79Z" transform="translate(-191.02 -97.02)"/><path class="cls-20" d="M341.46,192.77l5.43-10.07,6.79,3.76h0l0,0c1.62.87,1.72,3.84.22,6.62s-4,4.33-5.65,3.46l0,0h0Z" transform="translate(-191.02 -97.02)"/><path class="cls-21" d="M341.48,192.79c1.62.87,4.15-.68,5.65-3.46s1.4-5.75-.22-6.62-4.15.67-5.65,3.46S339.86,191.91,341.48,192.79Z" transform="translate(-191.02 -97.02)"/><path class="cls-20" d="M346.91,182.71h0Z" transform="translate(-191.02 -97.02)"/><path class="cls-20" d="M346.91,182.71h0Z" transform="translate(-191.02 -97.02)"/><path class="cls-22" d="M346.91,189.22c1.37-2.54,1.4-5.22.17-6.34l.11.05c1.62.87,1.72,3.84.22,6.62s-4,4.33-5.65,3.46a1.88,1.88,0,0,1-.39-.29C343,193.48,345.44,191.94,346.91,189.22Z" transform="translate(-191.02 -97.02)"/><path class="cls-33" d="M366.75,261.51,411.2,235s.37-.2.53-.26A74.13,74.13,0,0,1,422,230.37h0c.71-.24,1.07,0,.88.81a3.83,3.83,0,0,1-1.54,2.26h0s-6.58,5.44-10.83,8.26a6.62,6.62,0,0,1-.72.53l0,0h0L365.11,269Z" transform="translate(-191.02 -97.02)"/><path class="cls-34" d="M397.42,244.71l19.94-11.9.24-.12a34.48,34.48,0,0,1,4.6-1.95h0c.31-.11.16,1-.3,1.37h0s-3,2.44-4.86,3.7a3.33,3.33,0,0,1-.32.24h0l-20,12Z" transform="translate(-191.02 -97.02)"/><path class="cls-25" d="M356.22,192.61l43,22.92a7.72,7.72,0,0,0,.44-3.11L356.87,189.6A9.66,9.66,0,0,1,356.22,192.61Z" transform="translate(-191.02 -97.02)"/><path class="cls-21" d="M348,188.66l6,3.2a7.14,7.14,0,0,0,.53-2.77,1.9,1.9,0,0,0,0-.25l-5.81-3.1A8.44,8.44,0,0,1,348,188.66Z" transform="translate(-191.02 -97.02)"/><path class="cls-21" d="M400.08,216l11,5.86a8.3,8.3,0,0,0,.5-2.89l0-.21L400.65,213A9.12,9.12,0,0,1,400.08,216Z" transform="translate(-191.02 -97.02)"/><path class="cls-2" d="M514.52,248.23c-1.32-.76-1.33-2,0-2.75l10.85-6.26a7.34,7.34,0,0,1,6.66,0c1.84,1.06,1.85,2.79,0,3.84l-9.69,5.6a.87.87,0,0,1-.74,0,.23.23,0,0,1,0-.43l9.69-5.59c1.43-.83,1.42-2.17,0-3a5.76,5.76,0,0,0-5.18,0l-10.85,6.27a1,1,0,0,0,0,1.9,3.65,3.65,0,0,0,3.3,0l10.39-6a.45.45,0,0,0,0-.86,1.66,1.66,0,0,0-1.49,0l-8.66,5s0,.07,0,.1a.17.17,0,0,0,.17,0l6.37-3.68a.82.82,0,0,1,.73,0c.21.11.21.3,0,.42l-6.37,3.68a1.79,1.79,0,0,1-1.64,0,.5.5,0,0,1,0-.95l8.66-5a3.28,3.28,0,0,1,3,0c.82.48.83,1.25,0,1.72l-10.39,6A5.24,5.24,0,0,1,514.52,248.23Z" transform="translate(-191.02 -97.02)"/><path class="cls-5" d="M514.52,248c-1.32-.77-1.33-2,0-2.76l10.85-6.26a7.37,7.37,0,0,1,6.66,0c1.84,1.06,1.85,2.79,0,3.84l-9.69,5.6a.84.84,0,0,1-.74,0,.23.23,0,0,1,0-.43l9.69-5.59c1.43-.83,1.42-2.17,0-3a5.76,5.76,0,0,0-5.18,0l-10.85,6.27a1,1,0,0,0,0,1.9,3.65,3.65,0,0,0,3.3,0l10.39-6a.45.45,0,0,0,0-.86,1.63,1.63,0,0,0-1.49,0l-8.66,5s0,.07,0,.1a.17.17,0,0,0,.17,0l6.37-3.67a.79.79,0,0,1,.73,0c.21.12.21.31,0,.42l-6.37,3.68a1.82,1.82,0,0,1-1.64,0c-.46-.27-.46-.69,0-.95l8.66-5a3.28,3.28,0,0,1,3,0c.82.48.83,1.25,0,1.72l-10.39,6A5.27,5.27,0,0,1,514.52,248Z" transform="translate(-191.02 -97.02)"/><path class="cls-4" d="M528.94,240.4a1.63,1.63,0,0,0-1.49,0l-8.66,5s0,.08,0,.1a.17.17,0,0,0,.17,0l6.37-3.67a.57.57,0,0,1,.24-.06l1.88-1.08a1.63,1.63,0,0,1,1.49,0,.59.59,0,0,1,.26.29C529.28,240.77,529.21,240.56,528.94,240.4Z" transform="translate(-191.02 -97.02)"/><path class="cls-4" d="M518.06,246.2a1.82,1.82,0,0,0,1.64,0l6.37-3.68a.21.21,0,0,0,.08-.35.27.27,0,0,1-.08.07l-6.37,3.68a1.82,1.82,0,0,1-1.64,0,.68.68,0,0,1-.3-.34A.5.5,0,0,0,518.06,246.2Z" transform="translate(-191.02 -97.02)"/><path class="cls-4" d="M531.27,239.1a5.7,5.7,0,0,0-5.18,0l-10.85,6.26a1.06,1.06,0,0,0-.65,1.08,1.19,1.19,0,0,1,.65-.8l10.85-6.27a5.76,5.76,0,0,1,5.18,0,1.91,1.91,0,0,1,1.06,1.37A1.72,1.72,0,0,0,531.27,239.1Z" transform="translate(-191.02 -97.02)"/><path class="cls-4" d="M532,242.51l-9.69,5.6a.81.81,0,0,1-.74,0,.2.2,0,0,1-.08-.08c-.11.12-.08.26.08.36a.84.84,0,0,0,.74,0l9.69-5.6a2.2,2.2,0,0,0,1.34-2A2.35,2.35,0,0,1,532,242.51Z" transform="translate(-191.02 -97.02)"/><path class="cls-4" d="M530.27,241a1.12,1.12,0,0,1-.59.71l-10.39,6a5.31,5.31,0,0,1-4.77,0,1.75,1.75,0,0,1-1-1.25,1.6,1.6,0,0,0,1,1.53,5.27,5.27,0,0,0,4.77,0l10.39-6A1,1,0,0,0,530.27,241Z" transform="translate(-191.02 -97.02)"/><path class="cls-2" d="M557.86,239.55c1.32-.76,1.33-2,0-2.76L547,230.53a7.37,7.37,0,0,0-6.66,0c-1.84,1.06-1.85,2.79,0,3.85L550,240a.79.79,0,0,0,.73,0c.21-.12.21-.31,0-.43L541.09,234c-1.43-.82-1.42-2.17,0-3a5.72,5.72,0,0,1,5.19,0l10.84,6.26a1,1,0,0,1,0,1.9,3.65,3.65,0,0,1-3.3,0l-10.38-6a.45.45,0,0,1,0-.86,1.63,1.63,0,0,1,1.49,0l8.66,5a.06.06,0,0,1,0,.1.17.17,0,0,1-.17,0l-6.37-3.67a.81.81,0,0,0-.74,0c-.2.12-.2.31,0,.42l6.37,3.68a1.82,1.82,0,0,0,1.64,0c.46-.27.46-.69,0-.95l-8.66-5a3.25,3.25,0,0,0-3,0,.9.9,0,0,0,0,1.71l10.38,6A5.33,5.33,0,0,0,557.86,239.55Z" transform="translate(-191.02 -97.02)"/><path class="cls-11" d="M557.86,239.21c1.32-.77,1.33-2,0-2.76L547,230.19a7.37,7.37,0,0,0-6.66,0c-1.84,1.06-1.85,2.79,0,3.84l9.69,5.6a.79.79,0,0,0,.73,0c.21-.12.21-.31,0-.43l-9.69-5.59c-1.43-.83-1.42-2.17,0-3a5.75,5.75,0,0,1,5.19,0l10.84,6.26a1,1,0,0,1,0,1.9,3.65,3.65,0,0,1-3.3,0l-10.38-6a.45.45,0,0,1,0-.86,1.63,1.63,0,0,1,1.49,0l8.66,5a.06.06,0,0,1,0,.1.17.17,0,0,1-.17,0l-6.37-3.67a.81.81,0,0,0-.74,0c-.2.12-.2.31,0,.42l6.37,3.68a1.82,1.82,0,0,0,1.64,0c.46-.27.46-.69,0-.95l-8.66-5a3.28,3.28,0,0,0-3,0c-.82.48-.83,1.25,0,1.72l10.38,6A5.33,5.33,0,0,0,557.86,239.21Z" transform="translate(-191.02 -97.02)"/><path class="cls-6" d="M557.13,236.63l-10.84-6.26a5.72,5.72,0,0,0-5.19,0A1.76,1.76,0,0,0,540,232a1.94,1.94,0,0,1,1.06-1.38,5.78,5.78,0,0,1,5.19,0l10.84,6.27a1.21,1.21,0,0,1,.66.82A1.08,1.08,0,0,0,557.13,236.63Z" transform="translate(-191.02 -97.02)"/><path class="cls-6" d="M543.44,231.93a1.63,1.63,0,0,1,1.49,0l2,1.13c.05,0,.11,0,.15,0l6.37,3.67a.17.17,0,0,0,.17,0,0,0,0,0,0,0-.09l-8.66-5a1.63,1.63,0,0,0-1.49,0,.46.46,0,0,0-.27.56A.6.6,0,0,1,543.44,231.93Z" transform="translate(-191.02 -97.02)"/><path class="cls-6" d="M554.32,237.2a1.82,1.82,0,0,1-1.64,0l-6.37-3.67a.45.45,0,0,1-.1-.09c-.09.11-.06.24.1.33l6.37,3.68a1.82,1.82,0,0,0,1.64,0c.29-.17.37-.39.3-.6A.65.65,0,0,1,554.32,237.2Z" transform="translate(-191.02 -97.02)"/><path class="cls-6" d="M550.88,239.3a.53.53,0,0,1-.11.09.79.79,0,0,1-.73,0l-9.69-5.59A2.38,2.38,0,0,1,539,232a2.22,2.22,0,0,0,1.35,2l9.69,5.6a.79.79,0,0,0,.73,0C550.93,239.55,551,239.41,550.88,239.3Z" transform="translate(-191.02 -97.02)"/><path class="cls-6" d="M557.86,239a5.33,5.33,0,0,1-4.78,0l-10.38-6a1.07,1.07,0,0,1-.59-.73,1,1,0,0,0,.59,1l10.38,6a5.33,5.33,0,0,0,4.78,0,1.6,1.6,0,0,0,1-1.51A1.72,1.72,0,0,1,557.86,239Z" transform="translate(-191.02 -97.02)"/><path class="cls-2" d="M563.56,242.27c-1.72.26-3.67-.26-4.36-1.17l-5.7-7.54c-1-1.27.2-2.61,2.6-3s5.13.37,6.09,1.64l5.09,6.73c.11.14,0,.29-.29.33a.78.78,0,0,1-.67-.18l-5.09-6.73c-.75-1-2.88-1.56-4.74-1.28s-2.78,1.33-2,2.32l5.7,7.54a3.51,3.51,0,0,0,3,.81c1.18-.19,1.76-.85,1.28-1.48L559,233.07a1.59,1.59,0,0,0-1.37-.37c-.53.08-.79.38-.58.67l4.55,6a.17.17,0,0,0,.15,0c.06,0,.09,0,.07-.08l-3.35-4.42c-.1-.14,0-.29.29-.33a.8.8,0,0,1,.68.18l3.34,4.43c.24.31,0,.64-.64.73a1.78,1.78,0,0,1-1.51-.4l-4.54-6c-.43-.56.09-1.16,1.16-1.32a3.12,3.12,0,0,1,2.71.73l5.46,7.21C566.12,241,565.28,242,563.56,242.27Z" transform="translate(-191.02 -97.02)"/><path class="cls-5" d="M563.56,241.93c-1.72.26-3.67-.26-4.36-1.17l-5.7-7.54c-1-1.27.2-2.61,2.6-3s5.13.37,6.09,1.64l5.09,6.73c.11.14,0,.29-.29.33a.78.78,0,0,1-.67-.18L561.23,232c-.75-1-2.88-1.56-4.74-1.28s-2.78,1.33-2,2.32l5.7,7.54a3.51,3.51,0,0,0,3,.81c1.18-.19,1.76-.85,1.28-1.48L559,232.72a1.62,1.62,0,0,0-1.37-.36c-.53.08-.79.38-.58.67l4.55,6a.17.17,0,0,0,.15,0c.06,0,.09,0,.07-.08l-3.35-4.42c-.1-.14,0-.29.29-.33a.8.8,0,0,1,.68.18l3.34,4.43c.24.31,0,.64-.64.73a1.78,1.78,0,0,1-1.51-.4l-4.54-6c-.43-.56.09-1.16,1.16-1.32a3.12,3.12,0,0,1,2.71.73l5.46,7.21C566.12,240.7,565.28,241.66,563.56,241.93Z" transform="translate(-191.02 -97.02)"/><path class="cls-4" d="M558.54,234.34c-.09.07-.12.15-.06.24l3.15,4.16a.18.18,0,0,0,.13,0c.06,0,.09,0,.07-.08Z" transform="translate(-191.02 -97.02)"/><path class="cls-4" d="M564.46,239.63,559,232.41a1.62,1.62,0,0,0-1.37-.36c-.51.08-.75.35-.59.62a.83.83,0,0,1,.59-.31,1.62,1.62,0,0,1,1.37.36l5.45,7.22a.65.65,0,0,1,.14.29A.66.66,0,0,0,564.46,239.63Z" transform="translate(-191.02 -97.02)"/><path class="cls-4" d="M567.23,238.54a.67.67,0,0,1-.24.09.78.78,0,0,1-.67-.18l-5.09-6.73c-.75-1-2.88-1.56-4.74-1.28-1.52.24-2.39,1-2.26,1.77.11-.67.94-1.25,2.26-1.46,1.86-.28,4,.29,4.74,1.28l5.09,6.73a.78.78,0,0,0,.67.18c.27,0,.4-.19.29-.33Z" transform="translate(-191.02 -97.02)"/><path class="cls-4" d="M556.1,233.17l4.54,6a1.78,1.78,0,0,0,1.51.4c.55-.09.82-.38.66-.67a.84.84,0,0,1-.66.36,1.78,1.78,0,0,1-1.51-.4l-4.54-6a.73.73,0,0,1-.12-.23A.59.59,0,0,0,556.1,233.17Z" transform="translate(-191.02 -97.02)"/><path class="cls-4" d="M563.56,241.62c-1.72.26-3.67-.26-4.36-1.17l-5.7-7.54a1.48,1.48,0,0,1-.31-.76,1.38,1.38,0,0,0,.31,1.07l5.7,7.54c.69.91,2.64,1.43,4.36,1.17,1.41-.22,2.21-.9,2.08-1.64C565.53,240.9,564.77,241.43,563.56,241.62Z" transform="translate(-191.02 -97.02)"/><path class="cls-29" d="M405.56,263.66c0,.91,1.27,1.65,2.83,1.65s2.83-.74,2.83-1.65S410,262,408.39,262,405.56,262.75,405.56,263.66Z" transform="translate(-191.02 -97.02)"/><path class="cls-29" d="M426.11,272.11h0c-.68-.05-1.37-.12-2-.23a.49.49,0,0,1-.42-.57.5.5,0,0,1,.57-.41c.64.1,1.29.17,1.94.21a.5.5,0,0,1,.47.53A.51.51,0,0,1,426.11,272.11Zm3,0a.5.5,0,0,1,0-1c.66-.05,1.31-.13,1.94-.23a.5.5,0,0,1,.58.4.51.51,0,0,1-.41.58c-.66.11-1.35.2-2,.25Zm-7.91-.86-.15,0c-.65-.2-1.3-.43-1.93-.68a.5.5,0,0,1,.38-.93c.6.24,1.22.46,1.84.65a.5.5,0,0,1,.34.62A.51.51,0,0,1,421.2,271.24ZM434,271.1a.5.5,0,0,1-.17-1,13.5,13.5,0,0,0,1.77-.77.5.5,0,1,1,.46.89,15.38,15.38,0,0,1-1.89.82A.51.51,0,0,1,434,271.1Zm-17.36-1.87a.59.59,0,0,1-.25-.07l-1.73-1a.5.5,0,0,1,.5-.87l1.73,1a.52.52,0,0,1,.19.69A.52.52,0,0,1,416.63,269.23Zm21.8-.4a.51.51,0,0,1-.43-.26.5.5,0,0,1,.19-.68l1.73-1a.5.5,0,1,1,.5.87l-1.74,1A.55.55,0,0,1,438.43,268.83Zm-26.13-2.11a.57.57,0,0,1-.25-.06l-1.73-1a.5.5,0,0,1,.5-.86l1.73,1a.5.5,0,0,1,.19.68A.51.51,0,0,1,412.3,266.72Zm30.48-.37a.51.51,0,0,1-.44-.25.52.52,0,0,1,.19-.69l1.74-1a.51.51,0,0,1,.68.19.5.5,0,0,1-.19.68l-1.73,1A.47.47,0,0,1,442.78,266.35Zm4.34-2.48a.5.5,0,0,1-.43-.25.51.51,0,0,1,.18-.69l1.74-1a.51.51,0,0,1,.68.19.5.5,0,0,1-.18.68l-1.74,1A.47.47,0,0,1,447.12,263.87Zm4.34-2.48a.5.5,0,0,1-.24-.93l1.73-1a.49.49,0,0,1,.68.18.51.51,0,0,1-.18.69l-1.74,1A.54.54,0,0,1,451.46,261.39Zm4.35-2.48a.5.5,0,0,1-.25-.93l1.74-1a.5.5,0,0,1,.68.18.52.52,0,0,1-.19.69l-1.74,1A.5.5,0,0,1,455.81,258.91Zm4.34-2.47a.53.53,0,0,1-.44-.26.51.51,0,0,1,.19-.68l1.74-1a.51.51,0,0,1,.68.19.5.5,0,0,1-.19.68l-1.73,1A.59.59,0,0,1,460.15,256.44Zm4.34-2.48a.5.5,0,0,1-.43-.25.5.5,0,0,1,.18-.69l1.74-1a.5.5,0,0,1,.68.19.49.49,0,0,1-.18.68l-1.74,1A.45.45,0,0,1,464.49,254Zm4.34-2.48a.5.5,0,0,1-.24-.93l1.73-1a.52.52,0,0,1,.69.19.5.5,0,0,1-.19.68l-1.74,1A.45.45,0,0,1,468.83,251.48Z" transform="translate(-191.02 -97.02)"/><polygon class="cls-29" points="278.65 150.85 282.21 153.22 284.59 149.19 278.65 150.85"/><path class="cls-12" d="M239.92,144.63a.49.49,0,0,1-.39-.2.5.5,0,0,1,.09-.7l1.09-.84a.51.51,0,0,1,.7.1.5.5,0,0,1-.09.7l-1.09.83A.51.51,0,0,1,239.92,144.63ZM243.4,142a.5.5,0,0,1-.4-.19.51.51,0,0,1,.09-.7l1.59-1.22a.5.5,0,0,1,.61.8l-1.59,1.21A.47.47,0,0,1,243.4,142Zm4-3a.5.5,0,0,1-.31-.89l1.59-1.22a.51.51,0,0,1,.7.09.49.49,0,0,1-.09.7l-1.59,1.22A.49.49,0,0,1,247.37,138.92Zm4-3A.5.5,0,0,1,251,135l1.59-1.22a.5.5,0,0,1,.61.79l-1.59,1.22A.49.49,0,0,1,251.34,135.88Zm4-3A.5.5,0,0,1,255,132l1.59-1.22a.5.5,0,1,1,.61.79l-1.59,1.22A.49.49,0,0,1,255.31,132.84Zm4-3a.5.5,0,0,1-.31-.9l1.59-1.21a.5.5,0,1,1,.61.79l-1.59,1.22A.49.49,0,0,1,259.28,129.8Zm4-3a.49.49,0,0,1-.39-.2.5.5,0,0,1,.09-.7l1.59-1.21a.5.5,0,0,1,.7.09.51.51,0,0,1-.09.7l-1.59,1.22A.5.5,0,0,1,263.24,126.76Zm4-3a.47.47,0,0,1-.39-.2.5.5,0,0,1,.09-.7l.1-.07v-1.38a.5.5,0,0,1,.5-.5.5.5,0,0,1,.5.5v1.87l-.49.38A.5.5,0,0,1,267.21,123.72Zm.3-4.85a.5.5,0,0,1-.5-.5v-2a.5.5,0,0,1,.5-.5.5.5,0,0,1,.5.5v2A.51.51,0,0,1,267.51,118.87Z" transform="translate(-191.02 -97.02)"/><path class="cls-12" d="M265.65,111.24a4.6,4.6,0,0,0,2.09,3.59,1.84,1.84,0,0,0,.9.28c.65,0,1.05-.53,1.05-1.39a4.62,4.62,0,0,0-2.09-3.6,1.82,1.82,0,0,0-.89-.27C266.06,109.85,265.65,110.38,265.65,111.24Z" transform="translate(-191.02 -97.02)"/><polygon class="cls-12" points="50.41 48.4 46.85 46.02 44.47 50.06 50.41 48.4"/><path class="cls-20" d="M215.54,247.87c0,.91,1.27,1.65,2.83,1.65s2.83-.74,2.83-1.65-1.27-1.64-2.83-1.64S215.54,247,215.54,247.87Z" transform="translate(-191.02 -97.02)"/><polygon class="cls-20" points="70.02 177.53 73.59 175.15 75.96 179.19 70.02 177.53"/><path class="cls-20" d="M262.81,274.05a.54.54,0,0,1-.25-.06l-1.73-1a.51.51,0,0,1-.18-.69.49.49,0,0,1,.68-.18l1.73,1a.5.5,0,0,1-.25.93Zm-4.33-2.5a.47.47,0,0,1-.25-.07l-1.73-1a.5.5,0,0,1,.5-.86l1.73,1a.5.5,0,0,1-.25.93Zm-4.33-2.5a.47.47,0,0,1-.25-.07l-1.73-1a.5.5,0,0,1,.5-.87l1.73,1a.52.52,0,0,1,.19.69A.51.51,0,0,1,254.15,269.05Zm-4.33-2.51a.57.57,0,0,1-.25-.06l-1.73-1a.51.51,0,0,1-.18-.69.49.49,0,0,1,.68-.18l1.74,1a.5.5,0,0,1,.18.68A.5.5,0,0,1,249.82,266.54ZM245.5,264a.45.45,0,0,1-.25-.07l-1.74-1a.5.5,0,0,1-.18-.68.51.51,0,0,1,.69-.18l1.73,1a.5.5,0,0,1-.25.93Zm-4.33-2.5a.45.45,0,0,1-.25-.07l-1.73-1a.5.5,0,1,1,.5-.86l1.73,1a.5.5,0,0,1-.25.93Zm-4.33-2.5a.55.55,0,0,1-.25-.07l-1.73-1a.51.51,0,0,1-.18-.69.5.5,0,0,1,.68-.18l1.73,1a.51.51,0,0,1,.18.69A.5.5,0,0,1,236.84,259Zm-4.33-2.51a.57.57,0,0,1-.25-.06l-1.73-1a.5.5,0,0,1,.5-.86l1.73,1a.5.5,0,0,1-.25.93Zm-4.33-2.5a.47.47,0,0,1-.25-.07l-1.73-1a.5.5,0,1,1,.5-.86l1.73,1a.51.51,0,0,1,.19.68A.51.51,0,0,1,228.18,254Zm-4.33-2.5a.47.47,0,0,1-.25-.07l-1.73-1a.5.5,0,0,1,.5-.87l1.73,1a.5.5,0,0,1-.25.94ZM219.53,249a.51.51,0,0,1-.25-.06l-.35-.2a.5.5,0,0,1,.5-.87l.35.2a.5.5,0,0,1-.25.93Z" transform="translate(-191.02 -97.02)"/><path class="cls-3" d="M415.4,141H365.66v2.57c0,8,11.14,14.48,24.87,14.48s24.87-6.48,24.87-14.48c0-.06,0-.13,0-.2h0Z" transform="translate(-191.02 -97.02)"/><ellipse class="cls-10" cx="199.51" cy="44.03" rx="24.87" ry="14.48"/><path class="cls-9" d="M390.53,155.47c-13.58,0-24.62-6.34-24.85-14.22a2.28,2.28,0,0,0,0,.26c0,8,11.14,14.48,24.87,14.48s24.87-6.49,24.87-14.48a2.28,2.28,0,0,0,0-.26C415.15,149.13,404.11,155.47,390.53,155.47Z" transform="translate(-191.02 -97.02)"/><path class="cls-3" d="M414,134.07H367.16v6.31c0,7.53,10.48,13.64,23.42,13.64S414,147.91,414,140.38v-.19h0Z" transform="translate(-191.02 -97.02)"/><ellipse class="cls-10" cx="199.55" cy="37.15" rx="23.42" ry="13.64"/><path class="cls-3" d="M378.62,132.66c-.79,4.13,4.33,8.56,11.42,9.91s13.47-.92,14.25-5-4.33-8.56-11.42-9.9S379.4,128.53,378.62,132.66Z" transform="translate(-191.02 -97.02)"/><path class="cls-9" d="M390.58,147.75c-12.8,0-23.19-6-23.41-13.39,0,.08,0,.16,0,.24,0,7.53,10.48,13.64,23.42,13.64S414,142.13,414,134.6a1.93,1.93,0,0,0,0-.24C413.76,141.77,403.37,147.75,390.58,147.75Z" transform="translate(-191.02 -97.02)"/><g class="cls-35"><path class="cls-10" d="M406.92,142.31l4.84-2.82,39,22.53h0a9.67,9.67,0,0,1-9.69,0Z" transform="translate(-191.02 -97.02)"/></g><path class="cls-23" d="M450.49,153a5.4,5.4,0,1,1-7.59.8A5.41,5.41,0,0,1,450.49,153Z" transform="translate(-191.02 -97.02)"/><path class="cls-4" d="M421.69,128.27l-8.36,10.3,28.44,22.94h0s0,0,0,0c1.66,1.34,4.87.12,7.18-2.72s2.83-6.24,1.18-7.58l-.05,0h0Z" transform="translate(-191.02 -97.02)"/><path class="cls-5" d="M421.71,128.29c1.65,1.34,1.13,4.73-1.18,7.58s-5.52,4.06-7.18,2.72-1.12-4.74,1.18-7.58S420.05,126.94,421.71,128.29Z" transform="translate(-191.02 -97.02)"/><path class="cls-23" d="M411.35,123.35l-5,6.12,8.09,6.56h0c1,.81,2.91.08,4.28-1.61s1.68-3.71.7-4.51h0Z" transform="translate(-191.02 -97.02)"/><path class="cls-11" d="M405.26,137.2l-20-16-2.41,3-.06.08c-2.57,3.21-.18,9.39,5.33,13.81s12.08,5.38,14.65,2.17l.06-.08h0Z" transform="translate(-191.02 -97.02)"/><ellipse class="cls-3" cx="395.24" cy="129.25" rx="7.45" ry="12.79" transform="translate(-143.63 260.1) rotate(-51.34)"/><path class="cls-9" d="M390.61,135c-5.46-4.36-7.85-10.46-5.42-13.7l-.08.1c-2.57,3.21-.19,9.4,5.33,13.81s12.07,5.39,14.64,2.18a1,1,0,0,1,.08-.11C402.53,140.41,396.06,139.41,390.61,135Z" transform="translate(-191.02 -97.02)"/><path class="cls-6" d="M405.2,132.75,389.64,120.3l-1.86,2.34,0,.06c-2,2.5-.15,7.32,4.15,10.75s9.4,4.2,11.4,1.7l.05-.07h0Z" transform="translate(-191.02 -97.02)"/><path class="cls-19" d="M389.62,120.33c-2,2.51-.14,7.32,4.15,10.75s9.4,4.2,11.4,1.7.14-7.32-4.15-10.75S391.62,117.83,389.62,120.33Z" transform="translate(-191.02 -97.02)"/><path class="cls-9" d="M393.79,131.07c-4.25-3.4-6.11-8.15-4.22-10.67l-.07.08c-2,2.5-.14,7.31,4.16,10.75s9.4,4.19,11.4,1.69l.06-.08C403.07,135.24,398,134.47,393.79,131.07Z" transform="translate(-191.02 -97.02)"/><path class="cls-11" d="M416.53,120.5l-17.42-13.94L397,109.18l-8.23,10.27c-2.24,2.8-.15,8.2,4.66,12s10.52,4.7,12.76,1.9l.06-.07h0Z" transform="translate(-191.02 -97.02)"/><path class="cls-3" d="M399.08,106.6c-2.24,2.8-.16,8.19,4.65,12s10.53,4.69,12.77,1.89.16-8.19-4.65-12S401.32,103.79,399.08,106.6Z" transform="translate(-191.02 -97.02)"/><path class="cls-9" d="M403.75,118.62c-4.76-3.81-6.85-9.12-4.72-12l-.08.09c-2.24,2.8-.16,8.19,4.65,12s10.53,4.7,12.77,1.89l.07-.09C414.15,123.29,408.51,122.42,403.75,118.62Z" transform="translate(-191.02 -97.02)"/><path class="cls-6" d="M417.94,116.82l-15.55-12.45-1.87,2.34,0,.06c-2,2.5-.14,7.32,4.15,10.75s9.4,4.2,11.4,1.7l.05-.07h0Z" transform="translate(-191.02 -97.02)"/><path class="cls-19" d="M402.37,104.4c-2,2.51-.15,7.32,4.15,10.75s9.4,4.2,11.4,1.7.14-7.32-4.15-10.75S404.37,101.9,402.37,104.4Z" transform="translate(-191.02 -97.02)"/><path class="cls-9" d="M406.53,115.14c-4.24-3.4-6.11-8.15-4.21-10.67l-.07.08c-2,2.5-.14,7.31,4.15,10.75s9.4,4.19,11.4,1.69c0,0,0,0,.07-.08C415.82,119.31,410.78,118.54,406.53,115.14Z" transform="translate(-191.02 -97.02)"/><path class="cls-11" d="M423.14,114.86l-20-16-2.4,3-.06.08c-2.57,3.22-.18,9.4,5.33,13.81s12.08,5.39,14.65,2.18l.06-.09h0Z" transform="translate(-191.02 -97.02)"/><ellipse class="cls-3" cx="413.12" cy="106.9" rx="7.45" ry="12.79" transform="translate(-119.47 265.67) rotate(-51.34)"/><path class="cls-9" d="M408.48,112.7c-5.45-4.37-7.84-10.46-5.41-13.7l-.09.1c-2.57,3.21-.18,9.39,5.34,13.81s12.07,5.38,14.64,2.17A1,1,0,0,0,423,115C420.41,118.06,413.94,117.06,408.48,112.7Z" transform="translate(-191.02 -97.02)"/><path class="cls-12" d="M444.78,174.45c0-.91-1.27-1.65-2.83-1.65s-2.83.74-2.83,1.65,1.27,1.65,2.83,1.65S444.78,175.36,444.78,174.45Z" transform="translate(-191.02 -97.02)"/><polygon class="cls-12" points="226.44 61.47 222.88 63.85 220.5 59.81 226.44 61.47"/><path class="cls-12" d="M439.15,173.37a.47.47,0,0,1-.25-.07l-1.73-1a.5.5,0,0,1-.19-.68.51.51,0,0,1,.68-.19l1.74,1a.52.52,0,0,1,.19.69A.52.52,0,0,1,439.15,173.37Zm-4.34-2.48a.45.45,0,0,1-.25-.07l-1.74-1a.49.49,0,0,1-.18-.68.5.5,0,0,1,.68-.19l1.74,1a.51.51,0,0,1,.18.69A.5.5,0,0,1,434.81,170.89Zm-4.34-2.48a.54.54,0,0,1-.25-.06l-1.74-1a.52.52,0,0,1-.19-.69.51.51,0,0,1,.69-.18l1.73,1a.5.5,0,0,1-.24.93Zm-4.35-2.48a.57.57,0,0,1-.25-.06l-1.73-1a.5.5,0,1,1,.49-.87l1.74,1a.51.51,0,0,1,.19.68A.51.51,0,0,1,426.12,165.93Zm-4.34-2.47a.59.59,0,0,1-.25-.07l-1.74-1a.5.5,0,0,1,.5-.87l1.74,1a.49.49,0,0,1,.18.68A.51.51,0,0,1,421.78,163.46ZM417.44,161a.45.45,0,0,1-.25-.07l-1.74-1a.49.49,0,0,1-.18-.68.5.5,0,0,1,.68-.19l1.74,1a.51.51,0,0,1,.18.69A.5.5,0,0,1,417.44,161Z" transform="translate(-191.02 -97.02)"/><path class="cls-20" d="M367,341.89h0c-.68,0-1.36-.12-2-.22a.48.48,0,0,1-.41-.56.5.5,0,0,1,.56-.42c.63.1,1.28.17,1.93.21a.51.51,0,0,1,.47.53A.5.5,0,0,1,367,341.89Zm3,0a.5.5,0,0,1,0-1,17.07,17.07,0,0,0,1.92-.23.49.49,0,0,1,.57.4.5.5,0,0,1-.4.58c-.65.11-1.33.19-2,.24Zm-7.86-.86-.14,0c-.65-.2-1.29-.42-1.92-.68a.49.49,0,0,1-.27-.64.5.5,0,0,1,.65-.28,18.89,18.89,0,0,0,1.83.65.48.48,0,0,1,.33.61A.5.5,0,0,1,362.07,341Zm12.7-.14a.48.48,0,0,1-.46-.33.49.49,0,0,1,.29-.63,14.11,14.11,0,0,0,1.77-.77.49.49,0,0,1,.66.22.5.5,0,0,1-.21.67,15.88,15.88,0,0,1-1.88.81A.51.51,0,0,1,374.77,340.89ZM357.54,339a.5.5,0,0,1-.24-.06l-1.72-1a.49.49,0,0,1-.18-.68.5.5,0,0,1,.67-.18l1.72,1a.48.48,0,0,1,.18.67A.5.5,0,0,1,357.54,339Zm21.64-.4a.49.49,0,0,1-.24-.92l1.72-1a.51.51,0,0,1,.68.19.5.5,0,0,1-.19.68l-1.72,1A.54.54,0,0,1,379.18,338.63Zm-25.93-2.08a.45.45,0,0,1-.25-.07l-1.72-1a.5.5,0,1,1,.5-.86l1.72,1a.5.5,0,0,1-.25.93Zm30.24-.37a.5.5,0,0,1-.24-.93l1.72-1a.5.5,0,0,1,.5.87l-1.73,1A.55.55,0,0,1,383.49,336.18Zm4.32-2.46a.51.51,0,0,1-.44-.25.5.5,0,0,1,.19-.68l1.72-1a.5.5,0,0,1,.5.87l-1.73,1A.55.55,0,0,1,387.81,333.72Z" transform="translate(-191.02 -97.02)"/><polygon class="cls-20" points="197.63 233.27 201.2 235.65 203.57 231.61 197.63 233.27"/><path class="cls-20" d="M349.37,334.21a.47.47,0,0,1-.25-.07l-1.72-1a.5.5,0,0,1-.18-.68.49.49,0,0,1,.68-.18l1.72,1a.5.5,0,0,1-.25.93Zm-4.3-2.49a.5.5,0,0,1-.24-.06l-1.72-1a.49.49,0,1,1,.49-.85l1.72,1a.49.49,0,0,1,.18.68A.47.47,0,0,1,345.07,331.72Zm-4.29-2.48a.45.45,0,0,1-.25-.07l-1.72-1a.5.5,0,0,1,.5-.86l1.72,1a.51.51,0,0,1,.18.68A.5.5,0,0,1,340.78,329.24Zm-4.3-2.48a.59.59,0,0,1-.25-.07l-1.72-1a.51.51,0,0,1-.18-.68.49.49,0,0,1,.68-.18l1.72,1a.5.5,0,0,1-.25.93Zm-4.3-2.49a.42.42,0,0,1-.24-.07l-1.72-1a.49.49,0,0,1,.49-.86l1.72,1a.49.49,0,0,1-.25.92Zm-4.29-2.48a.45.45,0,0,1-.25-.07l-1.72-1a.5.5,0,0,1,.5-.86l1.72,1a.5.5,0,0,1,.18.68A.5.5,0,0,1,327.89,321.79Zm-4.3-2.49a.57.57,0,0,1-.25-.06l-1.72-1a.51.51,0,0,1-.18-.68.5.5,0,0,1,.68-.18l1.72,1a.48.48,0,0,1,.18.67A.5.5,0,0,1,323.59,319.3Zm-4.29-2.48a.45.45,0,0,1-.25-.07l-1.72-1a.5.5,0,0,1,.5-.86l1.71,1a.5.5,0,0,1-.24.93Zm-4.3-2.49a.54.54,0,0,1-.25-.06l-1.72-1a.48.48,0,0,1-.18-.67.51.51,0,0,1,.68-.19l1.72,1a.5.5,0,0,1,.18.68A.51.51,0,0,1,315,314.33Zm-4.3-2.48a.47.47,0,0,1-.25-.07l-1.71-1a.51.51,0,0,1-.19-.68.49.49,0,0,1,.68-.18l1.72,1a.5.5,0,0,1-.25.93Zm-4.29-2.49a.54.54,0,0,1-.25-.06l-.34-.2a.49.49,0,0,1,.49-.86l.34.2a.51.51,0,0,1,.19.68A.5.5,0,0,1,306.41,309.36Z" transform="translate(-191.02 -97.02)"/><path class="cls-20" d="M302.18,308.17c0,.92,1.26,1.65,2.83,1.65s2.83-.73,2.83-1.65-1.27-1.64-2.83-1.64S302.18,307.26,302.18,308.17Z" transform="translate(-191.02 -97.02)"/></g></g></svg>